<svg xmlns="http://www.w3.org/2000/svg" version="1.1" xmlns:xlink="http://www.w3.org/1999/xlink" xmlns:svgjs="http://svgjs.dev/svgjs" viewBox="0 0 800 800" opacity="0.4"><defs><linearGradient x1="50%" y1="0%" x2="50%" y2="100%" id="uundulate-grad"><stop stop-color="hsl(206, 75%, 49%)" stop-opacity="1" offset="45%"></stop><stop stop-color="hsl(331, 90%, 56%)" stop-opacity="1" offset="100%"></stop></linearGradient></defs><g stroke-width="3" stroke="url(#uundulate-grad)" fill="none"><path d="M1118.8848669194963 363.870009270237C1140.6710879732088 936.4696851763524 1378.8144938110204 1613.4990877519463 1138.2717778715385 1769.1443860341478C897.7290619320565 1924.7896843163485 293.8902756430223 1385.1407504453896 -35.72016959001485 1110.9674410248026C-365.3306148230521 836.7941316042156 -433.1984392272272 733.2834737196781 -443.8583592470372 453.1125008153317C-454.5182792668472 172.94152791098577 -394.7120098644228 64.57313756947156 -86.88778568509986 -233.8532289160571C220.936438494223 -532.2795954015857 782.4952808544253 -1103.8597329373501 1033.6979168137157 -979.3340583152058C1284.900552773006 -854.8083836930612 1097.0986458657833 -208.7296666358784 1118.8848669194963 363.870009270237C1140.6710879732088 936.4696851763524 1378.8144938110204 1613.4990877519463 1138.2717778715385 1769.1443860341478 "></path><path d="M1091.2353855783917 365.25963838334064C1112.1836750531156 915.8362498315287 1341.167719127934 1566.8260600003682 1109.8766461092016 1716.4850006563315C878.5855730904691 1866.1439413122944 297.9713555048593 1347.2507356671408 -18.961764911522778 1083.6225535319613C-335.8948853279047 819.9943713967814 -401.15240879345765 720.4648926616492 -411.40233188942875 451.0697264074704C-421.6522549853999 181.67456015329162 -364.146226713838 77.4741848249123 -68.16139577218132 -209.4742444880958C227.82343516947526 -496.4226738011041 767.7838605158238 -1046.0189598931852 1009.324856630526 -926.2827342949695C1250.8658527452283 -806.5465086967536 1070.2870961036679 -185.31697306484693 1091.2353855783917 365.25963838334064C1112.1836750531156 915.8362498315287 1341.167719127934 1566.8260600003682 1109.8766461092016 1716.4850006563315 "></path><path d="M1063.5860263076 366.64938956675724C1083.6963842033347 895.2029365570179 1303.5210665151608 1520.1531543191036 1081.4816364171772 1663.8257373488282C859.4422063191939 1807.4983203785523 302.05255743700855 1309.3608429592055 -2.203238162718094 1056.277788109433C-306.45903376244473 803.1947332596603 -369.10625628937555 707.6464336739332 -378.9461824615079 449.0270740699216C-388.78610863364014 190.40771446590998 -333.58032149294075 90.37535415066577 -49.4348837889504 -185.09513798982198C234.7105539150399 -460.56563013030996 753.0725622475345 -988.178064778708 984.9519185176487 -873.2312882044207C1216.8312747877628 -758.2845116301334 1043.4756684118647 -161.90415742350297 1063.5860263076 366.64938956675724C1083.6963842033347 895.2029365570179 1303.5210665151608 1520.1531543191036 1081.4816364171772 1663.8257373488282 "></path><path d="M1035.9365754840735 368.03895764470485C1055.2090018008194 874.5694401770379 1265.8743223496526 1473.4800655323706 1053.0865351724187 1611.1662909358565C840.2987479951846 1748.8525163393424 306.13366781642355 1271.470767145801 14.555197033352215 1028.932839581436C-277.0232737497192 786.3949120170705 -337.0601953380279 694.8277915807487 -346.4901245863213 446.984238626904C-355.9200538346148 199.14068567305958 -303.01450782477787 103.27634037095072 -30.70846335845374 -160.7162145970168C241.59758110787038 -424.70876956498444 738.3611724265108 -930.3373527696992 960.5788888520369 -820.1800252193407C1182.796605277563 -710.022697668982 1016.6641491673277 -138.49152488762797 1035.9365754840735 368.03895764470485C1055.2090018008194 874.5694401770379 1265.8743223496526 1473.4800655323706 1053.0865351724187 1611.1662909358565 "></path><path d="M1008.2871551781254 369.4285257226527C1026.7216499158824 853.9359437970579 1228.2276087017228 1426.8069767456373 1024.6914644452381 1558.5068445228844C821.1553201887534 1690.206712300132 310.2148087134167 1233.5806913323968 31.313662747000535 1001.5878910534389C-247.5874832194155 769.5950907744805 -305.0141038691021 682.009149487564 -314.0340361935567 444.9414031838867C-323.0539685180113 207.87365688020918 -272.44866363903685 116.17732659123567 -11.982012410378957 -136.33729120421174C248.48463881827888 -388.85190899965903 723.6498131230655 -872.4966407606906 936.2058897040035 -767.1287622342606C1148.7619662849415 -661.7608837078305 989.8526604403685 -115.07889235175276 1008.2871551781254 369.4285257226527C1026.7216499158824 853.9359437970579 1228.2276087017228 1426.8069767456373 1024.6914644452381 1558.5068445228844 "></path><path d="M980.6377348721774 370.8180938006001C998.2342980309452 833.3024474170777 1190.580895053793 1380.1338879589034 996.2963937180575 1505.8473981099119C802.0118923823222 1631.5609082609208 314.2959496104098 1195.6906155189918 48.07212846064908 974.2429425254413C-218.15169268911177 752.7952695318904 -272.9680124001763 669.190507394379 -281.57794780079206 442.8985677408689C-290.18788320140783 216.60662808735879 -241.88281945329584 129.07831281152016 6.744438537695714 -111.95836781140679C255.37169652868727 -352.99504843433374 708.93845381962 -814.6559287516819 911.8328905559699 -714.0774992491806C1114.7273272923198 -613.4990697466792 963.0411717134091 -91.66625981587777 980.6377348721774 370.8180938006001C998.2342980309452 833.3024474170777 1190.580895053793 1380.1338879589034 996.2963937180575 1505.8473981099119 "></path><path d="M952.9883145662291 372.20772291370395C969.746946146008 812.6690120722544 1152.934181405863 1333.4608602073263 967.9013229908769 1453.1880127320965C782.8684645758908 1572.9151652568667 318.37709050740295 1157.800600740744 64.8305941742974 946.8980550326005C-188.71590215880815 735.9955093244569 -240.9219209312505 656.3719263363505 -249.12185940802738 440.85579333300757C-257.3217978848043 225.33966032966464 -211.31697526755477 141.97936006696136 25.4708894857705 -87.57938338344536C262.2587542390959 -317.1381268338521 694.2270945161745 -756.8151557075171 887.4598914079363 -661.0261752289443C1080.6926882996984 -565.2371947503716 936.2296829864499 -68.25356624484641 952.9883145662291 372.20772291370395C969.746946146008 812.6690120722544 1152.934181405863 1333.4608602073263 967.9013229908769 1453.1880127320965 "></path><path d="M925.3388637427029 373.59729099165156C941.2595637434929 792.0355156922742 1115.287437240355 1286.7877714205924 939.5062217461182 1400.5285663191244C763.7250062518815 1514.2693612176563 322.45820088681796 1119.9105249273398 81.58902937036771 919.5531065046032C-159.28014214608254 719.1956880818666 -208.87585997990277 643.5532842431658 -216.66580153284087 438.81295788999C-224.45574308577892 234.07263153681424 -180.75116159939188 154.88034628724608 44.19730991626716 -63.2004599906403C269.14578143192625 -281.28126626852656 679.5157046951508 -698.9744436985084 863.0868617423246 -607.9749122438643C1046.6580187894986 -516.9753807892201 909.4181637419126 -44.84093370897119 925.3388637427029 373.59729099165156C941.2595637434929 792.0355156922742 1115.287437240355 1286.7877714205924 939.5062217461182 1400.5285663191244 "></path><path d="M897.6894434367546 374.9869811399117C912.7722118585557 771.4021413826069 1077.6407235924253 1240.1148047041715 911.1111510189378 1347.8692419764648C744.5815784454503 1455.6236792487584 326.5393417838111 1082.0205711842477 98.34749508401615 892.2082800469184C-129.84435161577886 702.3959889095893 -176.82976851097698 630.7347642202938 -184.2097131400762 436.77024451728494C-191.58965776917546 242.80572481427635 -150.18531741365086 167.7814545778433 62.92376086434183 -38.821414527522734C276.03283914233475 -245.42428363288866 664.8043453917055 -641.1336096191872 838.7138625942912 -554.9235271884718C1012.6233797968769 -468.7134447577563 882.6066750149532 -21.428179102783588 897.6894434367546 374.9869811399117C912.7722118585557 771.4021413826069 1077.6407235924253 1240.1148047041715 911.1111510189378 1347.8692419764648 "></path><path d="M870.0400841659625 376.3765797354374C884.2849210087747 750.7686755202051 1039.9940709796517 1193.4417464350163 882.7161413269134 1295.2098260810708C725.4382116741754 1396.9779057271262 330.6205437159605 1044.1305258884215 115.10602183282072 864.8633620364992C-100.40850005031893 685.5961981845771 -144.78361600689493 617.9161526446871 -151.7535637121553 434.7274395918457C-158.7235114174157 251.53872653900407 -119.6194121927536 180.68247131570615 81.65027284757286 -14.442460617139545C282.9199578878994 -209.56739254998513 650.0930471234165 -583.2928670926004 814.3409244814138 -501.87223368581357C978.5888018394114 -420.45160027902676 855.7952473231503 1.9844839506696417 870.0400841659625 376.3765797354374C884.2849210087747 750.7686755202051 1039.9940709796517 1193.4417464350163 882.7161413269134 1295.2098260810708 "></path><path d="M842.3906638600145 377.7662088485413C855.7975691238378 730.1352401753816 1002.3473573317217 1146.7687186834391 854.3210705997326 1242.5504407032554C706.294783867744 1338.3321627230716 334.7016846129536 1006.2405111101734 131.86448754646926 837.5184745436584C-70.97270952001526 668.7964379771436 -112.73752453796914 605.0975715866587 -119.29747531939068 432.6846651839842C-125.85742610081218 260.2717587813099 -89.05356800701259 193.58351857114712 100.37672379564765 9.936523810821882C289.8070155983079 -173.71047094950336 635.3816878199709 -525.4520940484355 789.9679253333802 -448.8209096655773C944.5541628467897 -372.1897252827191 828.9837585961911 25.397177521700996 842.3906638600145 377.7662088485413C855.7975691238378 730.1352401753816 1002.3473573317217 1146.7687186834391 854.3210705997326 1242.5504407032554 "></path><path d="M814.7412435540664 379.15583796164515C827.3102172389006 709.5018048305578 964.7006436837919 1100.0956909318618 825.9259998725524 1189.8910553254393C687.1513560613125 1279.6864197190173 338.78282550994686 968.3504963319253 148.62295326011758 810.1735870508176C-41.53691898971158 651.9966777697098 -80.69143306904334 592.2789905286302 -86.841386926626 430.64189077612286C-92.99134078420872 269.00479102361555 -58.48772382127157 206.4845658265881 119.10317474372243 34.315508238783195C296.6940733087165 -137.85354934902182 620.6703285165254 -467.61132100427056 765.5949261853468 -395.769585645341C910.5195238541683 -323.92785028641146 802.172269869232 48.809871092732465 814.7412435540664 379.15583796164515C827.3102172389006 709.5018048305578 964.7006436837919 1100.0956909318618 825.9259998725524 1189.8910553254393 "></path><path d="M787.0918232481181 380.5453450044365C798.8228653539636 688.8682474154216 927.0539300358619 1053.422541109972 797.5309291453718 1137.2315478773112C668.0079282548813 1221.0405546446505 342.8639664069399 930.4603594833643 165.38141897376602 782.828577487664C-12.101128459407846 635.1967954919633 -48.64534160011755 579.460287400289 -54.38529853386137 428.59899429794905C-60.1252554676052 277.7377011956089 -27.92187963553056 219.38549101171657 137.82962569179722 58.69437059643201C303.5811310191249 -101.99674981885266 605.9589692130801 -409.77067003041816 741.2219270373134 -342.71838369541723C876.4848848615466 -275.66609736041636 775.3607811422728 72.22244259345132 787.0918232481181 380.5453450044365C798.8228653539636 688.8682474154216 927.0539300358619 1053.422541109972 797.5309291453718 1137.2315478773112 "></path><path d="M759.44240294217 381.9350351526966C770.3355134690264 668.2348731057543 889.4072163879321 1006.7495743935513 769.1358584181912 1084.572223534652C648.8645004484501 1162.3948726757524 346.945107303933 892.5704057402729 182.13988468741445 755.4837510299794C17.33466207089583 618.3970963196859 -16.599250131191695 566.6417673774172 -21.92921014109669 426.556280925244C-27.259170151001683 286.470794473071 2.6439645502104554 232.2865993023139 156.5560766398719 83.07341605954957C310.4681887295334 -66.13976718321464 591.2476099096345 -351.929835951097 716.8489278892798 -289.6669986400247C842.4502458689249 -227.40416132895245 748.5492924153136 95.63519719963892 759.44240294217 381.9350351526966C770.3355134690264 668.2348731057543 889.4072163879321 1006.7495743935513 769.1358584181912 1084.572223534652 "></path><path d="M731.792982636222 383.32460323064424C741.8481615840892 647.6013767257746 851.7605027400023 960.0764856068174 740.7407876910106 1031.9127771216797C629.7210726420188 1103.7490686365418 351.02624820092615 854.6803299268684 198.89835040106277 728.1388025019821C46.77045260119951 601.5972750770957 15.4468413377341 553.8231252842322 10.526878251667938 424.5134454822264C5.606915165601777 295.2037656802206 33.20980873595147 245.1875855225985 175.28252758794667 107.45233945235464C317.35524643994177 -30.282906617889353 576.5362506061891 -294.08912394208835 692.4759287412462 -236.61573565494467C808.4156068763032 -179.14234736780105 721.7378036883542 119.04782973551414 731.792982636222 383.32460323064424C741.8481615840892 647.6013767257746 851.7605027400023 960.0764856068174 740.7407876910106 1031.9127771216797 "></path><path d="M704.1435623302737 384.7142018261701C713.360809699152 626.9679108633727 814.1137890920722 913.4034273376624 712.34571696383 979.253361226286C610.5776448355876 1045.1032951149098 355.1073890979193 816.7902846310421 215.6568161147112 700.7938844915632C76.20624313150319 584.797484352084 47.492932806659894 541.0045137086258 42.982966644432565 422.4706405567871C38.47300048220529 303.93676740494834 63.77565292169254 258.0886022604616 194.00897853602146 131.83129336273782C324.2423041503504 5.573984465014291 561.8248913027437 -236.24838141550157 668.1029295932127 -183.56444215228652C774.3809678836817 -130.88050288907152 694.9263149613952 142.46049278896737 704.1435623302737 384.7142018261701C713.360809699152 626.9679108633727 814.1137890920722 913.4034273376624 712.34571696383 979.253361226286 "></path><path d="M676.4941420243255 386.1037699041176C684.8734578142149 606.3344144833927 776.4670754441424 866.7303385509288 683.9506462366494 926.5939148133139C591.4342170291563 986.457491075699 359.1885299949124 778.9002088176376 232.41528182835964 673.4489359635659C105.64203366180686 567.9976631094942 79.53902427558569 528.1858716154409 75.43905503719725 420.4278051137694C71.33908579880881 312.66973861209794 94.34149710743355 270.9895884807463 212.7354294840962 156.2102167555429C331.1293618607589 41.43084503033958 547.1135319992982 -178.40766940649286 643.7299304451791 -130.51317916720654C740.3463288910602 -82.61868892792018 668.1148262344359 165.87312532484248 676.4941420243255 386.1037699041176C684.8734578142149 606.3344144833927 776.4670754441424 866.7303385509288 683.9506462366494 926.5939148133139 "></path><path d="M648.8447827535335 387.49349056995584C656.3861669644341 585.7010706913035 738.8204228313689 820.0574023520858 655.5556365446251 873.9346209882324C572.2908502578814 927.8118396243792 363.2697319270618 741.0102855921239 249.17380857716432 646.1041400234592C135.0778852272668 551.1979944547946 111.58517677966773 515.3673821101469 107.89520446511813 418.38512225864247C104.20523215056852 321.4028624071382 124.90740232833082 283.89072728892165 231.46194146732716 180.58929273623858C338.0164806063236 77.28785818355567 532.402233731009 -120.56680480959358 619.3569923323018 -77.46176359423589C706.3117509335947 -34.356722378878146 641.3033985426329 189.2859104486082 648.8447827535335 387.49349056995584C656.3861669644341 585.7010706913035 738.8204228313689 820.0574023520858 655.5556365446251 873.9346209882324 "></path><path d="M621.1953014124291 388.8831196830597C627.8987540443408 565.0676353464798 701.1736481482827 773.3843746005086 627.1605047822882 821.2752356104168C553.1473614162938 869.1660966203249 367.3508117888987 703.1202708138758 265.9322132556565 618.7592525306183C164.51361472241427 534.3982342473608 143.63120721343734 502.5488010521184 140.35123182272656 416.34234785078115C137.0712564320158 330.135894649444 155.47318547891558 296.7917745443626 250.1883313802457 204.9682771642C344.90347728157576 113.14477978403738 517.6908133924073 -62.72603176542867 594.983932149112 -24.41043957399961C672.2770509058167 13.905152617429508 614.4918487805174 212.69860401963956 621.1953014124291 388.8831196830597C627.8987540443408 565.0676353464798 701.1736481482827 773.3843746005086 627.1605047822882 821.2752356104168 "></path><path d="M593.5459268828481 390.27262672585107C599.4114479357709 544.4340779313436 663.52698027672 726.7112247786188 598.765479831475 768.6157281622884C534.0039793862297 810.520231545958 371.431998462259 665.230133965315 282.69072474567207 591.4142429674648C193.94945102908514 517.5983519696144 175.67734445873032 489.7300979237773 172.80736599185838 414.29945137260734C169.93738752498643 338.86880482143727 186.03907544102378 309.6926997294911 268.9148281046877 229.34713952184882C351.79058076835145 149.00157931420648 502.9794998653291 -4.885380791576267 570.6109787774458 28.64076237592417C638.2424576895623 62.16690554342466 587.6804058299255 236.11117552035853 593.5459268828481 390.27262672585107C599.4114479357709 544.4340779313436 663.52698027672 726.7112247786188 598.765479831475 768.6157281622884 "></path><path d="M565.8965065769 391.66237790926743C570.9240960508337 523.8007646568326 625.8802666287902 680.038319097354 570.3704091042944 715.9564648547852C514.8605515797985 751.8746106122162 375.51313935925214 627.3402412573795 299.44919045932045 564.0694775449364C223.38524155938882 500.79871383249315 207.7234359276561 476.9116389360614 205.26345438462306 412.2567990350585C202.80347284158995 347.6019591340556 216.6049196267648 322.59386905524457 287.6412790527624 253.72624602012263C358.67763847875995 184.85862298500064 488.2681405618837 52.95551432290114 546.2379796294122 81.69220846647295C604.2078186969406 110.42890261004476 560.8689171029662 259.5239911617024 565.8965065769 391.66237790926743C570.9240960508337 523.8007646568326 625.8802666287902 680.038319097354 570.3704091042944 715.9564648547852 "></path><path d="M538.2470710121627 393.0519154696369C542.4367289071074 503.1672377592745 588.2335377220712 633.3651997930425 541.9753231183247 663.296987924235C495.7171085145782 693.2287760554276 379.5942649974562 589.4501349263969 316.2076409141798 536.7244984993611C252.82101683090343 483.9988620723252 239.76951213779284 464.09296632529856 237.71952751859862 410.21393307446283C235.6695428994044 356.3348998236271 247.17074855371675 335.4948247579513 306.36771474204807 278.10513889534957C365.56468093037944 220.71545303274792 473.5567659996491 110.79619581433167 521.8649652225895 134.74344093397485C570.1731644455301 158.69068605361804 534.057413117218 282.93659317999936 538.2470710121627 393.0519154696369C542.4367289071074 503.1672377592745 588.2335377220712 633.3651997930425 541.9753231183247 663.296987924235 "></path><path d="M510.5976507062146 394.4415751003189C513.9493770221704 482.533832932029 550.5868240741413 586.6922025590434 513.5802523911441 610.6376330639974C476.57368070814687 634.5830635689515 383.67540589444934 551.560150665727 332.96610662782825 509.37964152409813C282.2568073612071 467.19913238246954 271.81560360671864 451.2744157848483 270.17561591136325 408.17118918417964C268.53562821600786 365.0679625835111 277.7365927394578 348.3959025309704 325.09416569012285 302.48415384088906C372.4517386407879 256.57240515080775 458.84540669620367 168.6369993760747 497.491966074556 187.79479547178926C536.1385254529084 206.95259156750382 507.2459243902588 306.34931726860884 510.5976507062146 394.4415751003189C513.9493770221704 482.533832932029 550.5868240741413 586.6922025590434 513.5802523911441 610.6376330639974 "></path><path d="M482.9482456590555 395.83117369584465C485.4620403960223 461.90036706962724 512.9401256850006 540.0191442898879 485.18519692275265 557.9782171686036C457.43026816050474 575.937290047319 387.75656205023154 513.6701053699007 349.7245876002657 482.0347235136792C311.69261315029985 450.3993416574575 303.8617103344335 438.4558042092417 302.631719562917 406.1283842587402C301.40172879140044 373.80096430823875 308.3024521839879 361.2969192688332 343.8206318969867 326.86310775127225C379.33881160998544 292.4292962337113 444.1340626515473 226.47774190266153 473.11898218531155 240.8460889744474C502.1039017190758 255.21443604623335 480.43445092208856 329.76198032206213 482.9482456590555 395.83117369584465C485.4620403960223 461.90036706962724 512.9401256850006 540.0191442898879 485.18519692275265 557.9782171686036 "></path><path d="M455.2988253531073 397.2207722913704C456.9746885110852 441.26690120722543 475.29341203707065 493.3460860207326 456.79012619557204 505.3188012732096C438.28684035407343 517.2915165256867 391.83770294722467 475.7800600740744 366.4830533139141 454.68980550326C341.1284036806036 433.5995509324457 335.90780180335935 425.6371926336351 335.0878079556816 404.08557933330076C334.26781410800396 382.5339660329665 338.8682963697289 374.1979360066961 362.5470828450614 351.2420616616555C386.22586932039394 328.2861873166148 429.42270334810183 284.3184844292483 448.745983037278 293.89738247710557C468.0692627264542 303.4762805249628 453.6229621951294 353.17464337551536 455.2988253531073 397.2207722913704C456.9746885110852 441.26690120722543 475.29341203707065 493.3460860207326 456.79012619557204 505.3188012732096 "></path><path d="M427.6494050471591 398.6103861456852C428.4873366261481 420.6334506036127 437.6466983891408 446.6730430103663 428.3950554683915 452.6594006366048C419.1434125476422 458.64575826284334 395.9188438442178 437.8900300370372 383.2415190275625 427.34490275163C370.56419421090726 416.79977546622285 367.95389327228514 412.81859631681755 367.5438963484463 402.0427896666504C367.1338994246074 391.2669830164832 369.4341405554699 387.0989680033481 381.27353379313615 375.62103083082775C393.11292703080244 364.1430936583074 414.71134404465636 342.15924221462416 424.3729838892445 346.9486912385528C434.0346237338326 351.7381402624814 426.81147346817016 376.5873216877577 427.6494050471591 398.6103861456852C428.4873366261481 420.6334506036127 437.6466983891408 446.6730430103663 428.3950554683915 452.6594006366048 "></path></g></svg>