<svg xmlns="http://www.w3.org/2000/svg" version="1.1" xmlns:xlink="http://www.w3.org/1999/xlink" xmlns:svgjs="http://svgjs.dev/svgjs" viewBox="0 0 1422 800"><g><circle r="49" cx="0" cy="0" fill="hsl(185, 74%, 21%)"></circle><circle r="49" cx="0" cy="98" fill="hsl(185, 74%, 21%)"></circle><circle r="49" cx="0" cy="196" fill="hsl(185, 74%, 21%)"></circle><circle r="49" cx="0" cy="294" fill="hsl(185, 74%, 21%)"></circle><circle r="49" cx="0" cy="392" fill="hsl(185, 74%, 21%)"></circle><circle r="49" cx="0" cy="490" fill="hsl(185, 74%, 21%)"></circle><circle r="49" cx="0" cy="588" fill="hsl(185, 74%, 21%)"></circle><circle r="49" cx="0" cy="686" fill="hsl(186, 74%, 21%)"></circle><circle r="49" cx="0" cy="784" fill="hsl(188, 74%, 21%)"></circle><circle r="49" cx="0" cy="882" fill="hsl(190, 74%, 21%)"></circle><circle r="49" cx="98" cy="0" fill="hsl(176, 74%, 21%)"></circle><circle r="49" cx="98" cy="98" fill="hsl(176, 74%, 21%)"></circle><circle r="49" cx="98" cy="196" fill="hsl(176, 74%, 21%)"></circle><circle r="49" cx="98" cy="294" fill="hsl(176, 74%, 21%)"></circle><circle r="49" cx="98" cy="392" fill="hsl(177, 74%, 21%)"></circle><circle r="49" cx="98" cy="490" fill="hsl(178, 74%, 21%)"></circle><circle r="49" cx="98" cy="588" fill="hsl(179, 74%, 21%)"></circle><circle r="49" cx="98" cy="686" fill="hsl(181, 74%, 21%)"></circle><circle r="49" cx="98" cy="784" fill="hsl(184, 74%, 21%)"></circle><circle r="49" cx="98" cy="882" fill="hsl(186, 74%, 21%)"></circle><circle r="49" cx="196" cy="0" fill="hsl(159, 74%, 21%)"></circle><circle r="49" cx="196" cy="98" fill="hsl(159, 74%, 21%)"></circle><circle r="49" cx="196" cy="196" fill="hsl(160, 74%, 21%)"></circle><circle r="49" cx="196" cy="294" fill="hsl(161, 74%, 21%)"></circle><circle r="49" cx="196" cy="392" fill="hsl(163, 74%, 21%)"></circle><circle r="49" cx="196" cy="490" fill="hsl(166, 74%, 21%)"></circle><circle r="49" cx="196" cy="588" fill="hsl(167, 74%, 21%)"></circle><circle r="49" cx="196" cy="686" fill="hsl(170, 74%, 21%)"></circle><circle r="49" cx="196" cy="784" fill="hsl(173, 74%, 21%)"></circle><circle r="49" cx="196" cy="882" fill="hsl(175, 74%, 21%)"></circle><circle r="49" cx="294" cy="0" fill="hsl(152, 74%, 21%)"></circle><circle r="49" cx="294" cy="98" fill="hsl(152, 74%, 21%)"></circle><circle r="49" cx="294" cy="196" fill="hsl(153, 74%, 21%)"></circle><circle r="49" cx="294" cy="294" fill="hsl(155, 74%, 21%)"></circle><circle r="49" cx="294" cy="392" fill="hsl(157, 74%, 21%)"></circle><circle r="49" cx="294" cy="490" fill="hsl(160, 74%, 21%)"></circle><circle r="49" cx="294" cy="588" fill="hsl(161, 74%, 21%)"></circle><circle r="49" cx="294" cy="686" fill="hsl(164, 74%, 21%)"></circle><circle r="49" cx="294" cy="784" fill="hsl(167, 74%, 21%)"></circle><circle r="49" cx="294" cy="882" fill="hsl(168, 74%, 21%)"></circle><circle r="49" cx="392" cy="0" fill="hsl(141, 74%, 21%)"></circle><circle r="49" cx="392" cy="98" fill="hsl(141, 74%, 21%)"></circle><circle r="49" cx="392" cy="196" fill="hsl(143, 74%, 21%)"></circle><circle r="49" cx="392" cy="294" fill="hsl(144, 74%, 21%)"></circle><circle r="49" cx="392" cy="392" fill="hsl(147, 74%, 21%)"></circle><circle r="49" cx="392" cy="490" fill="hsl(149, 74%, 21%)"></circle><circle r="49" cx="392" cy="588" fill="hsl(150, 74%, 21%)"></circle><circle r="49" cx="392" cy="686" fill="hsl(152, 74%, 21%)"></circle><circle r="49" cx="392" cy="784" fill="hsl(153, 74%, 21%)"></circle><circle r="49" cx="392" cy="882" fill="hsl(155, 74%, 21%)"></circle><circle r="49" cx="490" cy="0" fill="hsl(135, 74%, 21%)"></circle><circle r="49" cx="490" cy="98" fill="hsl(135, 74%, 21%)"></circle><circle r="49" cx="490" cy="196" fill="hsl(136, 74%, 21%)"></circle><circle r="49" cx="490" cy="294" fill="hsl(137, 74%, 21%)"></circle><circle r="49" cx="490" cy="392" fill="hsl(139, 74%, 21%)"></circle><circle r="49" cx="490" cy="490" fill="hsl(140, 74%, 21%)"></circle><circle r="49" cx="490" cy="588" fill="hsl(141, 74%, 21%)"></circle><circle r="49" cx="490" cy="686" fill="hsl(140, 74%, 21%)"></circle><circle r="49" cx="490" cy="784" fill="hsl(140, 74%, 21%)"></circle><circle r="49" cx="490" cy="882" fill="hsl(140, 74%, 21%)"></circle><circle r="49" cx="588" cy="0" fill="hsl(135, 74%, 21%)"></circle><circle r="49" cx="588" cy="98" fill="hsl(134, 74%, 21%)"></circle><circle r="49" cx="588" cy="196" fill="hsl(135, 74%, 21%)"></circle><circle r="49" cx="588" cy="294" fill="hsl(136, 74%, 21%)"></circle><circle r="49" cx="588" cy="392" fill="hsl(137, 74%, 21%)"></circle><circle r="49" cx="588" cy="490" fill="hsl(137, 74%, 21%)"></circle><circle r="49" cx="588" cy="588" fill="hsl(136, 74%, 21%)"></circle><circle r="49" cx="588" cy="686" fill="hsl(135, 74%, 21%)"></circle><circle r="49" cx="588" cy="784" fill="hsl(134, 74%, 21%)"></circle><circle r="49" cx="588" cy="882" fill="hsl(134, 74%, 21%)"></circle><circle r="49" cx="686" cy="0" fill="hsl(139, 74%, 21%)"></circle><circle r="49" cx="686" cy="98" fill="hsl(138, 74%, 21%)"></circle><circle r="49" cx="686" cy="196" fill="hsl(137, 74%, 21%)"></circle><circle r="49" cx="686" cy="294" fill="hsl(136, 74%, 21%)"></circle><circle r="49" cx="686" cy="392" fill="hsl(134, 74%, 21%)"></circle><circle r="49" cx="686" cy="490" fill="hsl(132, 74%, 21%)"></circle><circle r="49" cx="686" cy="588" fill="hsl(130, 74%, 21%)"></circle><circle r="49" cx="686" cy="686" fill="hsl(127, 74%, 21%)"></circle><circle r="49" cx="686" cy="784" fill="hsl(124, 74%, 21%)"></circle><circle r="49" cx="686" cy="882" fill="hsl(123, 74%, 21%)"></circle><circle r="49" cx="784" cy="0" fill="hsl(151, 74%, 21%)"></circle><circle r="49" cx="784" cy="98" fill="hsl(148, 74%, 21%)"></circle><circle r="49" cx="784" cy="196" fill="hsl(144, 74%, 21%)"></circle><circle r="49" cx="784" cy="294" fill="hsl(141, 74%, 21%)"></circle><circle r="49" cx="784" cy="392" fill="hsl(136, 74%, 21%)"></circle><circle r="49" cx="784" cy="490" fill="hsl(130, 74%, 21%)"></circle><circle r="49" cx="784" cy="588" fill="hsl(127, 74%, 21%)"></circle><circle r="49" cx="784" cy="686" fill="hsl(121, 74%, 21%)"></circle><circle r="49" cx="784" cy="784" fill="hsl(117, 74%, 21%)"></circle><circle r="49" cx="784" cy="882" fill="hsl(115, 74%, 21%)"></circle><circle r="49" cx="882" cy="0" fill="hsl(158, 74%, 21%)"></circle><circle r="49" cx="882" cy="98" fill="hsl(155, 74%, 21%)"></circle><circle r="49" cx="882" cy="196" fill="hsl(149, 74%, 21%)"></circle><circle r="49" cx="882" cy="294" fill="hsl(145, 74%, 21%)"></circle><circle r="49" cx="882" cy="392" fill="hsl(138, 74%, 21%)"></circle><circle r="49" cx="882" cy="490" fill="hsl(130, 74%, 21%)"></circle><circle r="49" cx="882" cy="588" fill="hsl(126, 74%, 21%)"></circle><circle r="49" cx="882" cy="686" fill="hsl(120, 74%, 21%)"></circle><circle r="49" cx="882" cy="784" fill="hsl(114, 74%, 21%)"></circle><circle r="49" cx="882" cy="882" fill="hsl(113, 74%, 21%)"></circle><circle r="49" cx="980" cy="0" fill="hsl(175, 74%, 21%)"></circle><circle r="49" cx="980" cy="98" fill="hsl(170, 74%, 21%)"></circle><circle r="49" cx="980" cy="196" fill="hsl(161, 74%, 21%)"></circle><circle r="49" cx="980" cy="294" fill="hsl(156, 74%, 21%)"></circle><circle r="49" cx="980" cy="392" fill="hsl(145, 74%, 21%)"></circle><circle r="49" cx="980" cy="490" fill="hsl(134, 74%, 21%)"></circle><circle r="49" cx="980" cy="588" fill="hsl(128, 74%, 21%)"></circle><circle r="49" cx="980" cy="686" fill="hsl(119, 74%, 21%)"></circle><circle r="49" cx="980" cy="784" fill="hsl(113, 74%, 21%)"></circle><circle r="49" cx="980" cy="882" fill="hsl(111, 74%, 21%)"></circle><circle r="49" cx="1078" cy="0" fill="hsl(191, 74%, 21%)"></circle><circle r="49" cx="1078" cy="98" fill="hsl(186, 74%, 21%)"></circle><circle r="49" cx="1078" cy="196" fill="hsl(174, 74%, 21%)"></circle><circle r="49" cx="1078" cy="294" fill="hsl(167, 74%, 21%)"></circle><circle r="49" cx="1078" cy="392" fill="hsl(153, 74%, 21%)"></circle><circle r="49" cx="1078" cy="490" fill="hsl(140, 74%, 21%)"></circle><circle r="49" cx="1078" cy="588" fill="hsl(133, 74%, 21%)"></circle><circle r="49" cx="1078" cy="686" fill="hsl(122, 74%, 21%)"></circle><circle r="49" cx="1078" cy="784" fill="hsl(116, 74%, 21%)"></circle><circle r="49" cx="1078" cy="882" fill="hsl(114, 74%, 21%)"></circle><circle r="49" cx="1176" cy="0" fill="hsl(198, 74%, 21%)"></circle><circle r="49" cx="1176" cy="98" fill="hsl(193, 74%, 21%)"></circle><circle r="49" cx="1176" cy="196" fill="hsl(180, 74%, 21%)"></circle><circle r="49" cx="1176" cy="294" fill="hsl(173, 74%, 21%)"></circle><circle r="49" cx="1176" cy="392" fill="hsl(158, 74%, 21%)"></circle><circle r="49" cx="1176" cy="490" fill="hsl(143, 74%, 21%)"></circle><circle r="49" cx="1176" cy="588" fill="hsl(136, 74%, 21%)"></circle><circle r="49" cx="1176" cy="686" fill="hsl(125, 74%, 21%)"></circle><circle r="49" cx="1176" cy="784" fill="hsl(118, 74%, 21%)"></circle><circle r="49" cx="1176" cy="882" fill="hsl(117, 74%, 21%)"></circle><circle r="49" cx="1274" cy="0" fill="hsl(209, 74%, 21%)"></circle><circle r="49" cx="1274" cy="98" fill="hsl(203, 74%, 21%)"></circle><circle r="49" cx="1274" cy="196" fill="hsl(190, 74%, 21%)"></circle><circle r="49" cx="1274" cy="294" fill="hsl(182, 74%, 21%)"></circle><circle r="49" cx="1274" cy="392" fill="hsl(166, 74%, 21%)"></circle><circle r="49" cx="1274" cy="490" fill="hsl(150, 74%, 21%)"></circle><circle r="49" cx="1274" cy="588" fill="hsl(143, 74%, 21%)"></circle><circle r="49" cx="1274" cy="686" fill="hsl(132, 74%, 21%)"></circle><circle r="49" cx="1274" cy="784" fill="hsl(126, 74%, 21%)"></circle><circle r="49" cx="1274" cy="882" fill="hsl(125, 74%, 21%)"></circle><circle r="49" cx="1372" cy="0" fill="hsl(213, 74%, 21%)"></circle><circle r="49" cx="1372" cy="98" fill="hsl(208, 74%, 21%)"></circle><circle r="49" cx="1372" cy="196" fill="hsl(195, 74%, 21%)"></circle><circle r="49" cx="1372" cy="294" fill="hsl(188, 74%, 21%)"></circle><circle r="49" cx="1372" cy="392" fill="hsl(172, 74%, 21%)"></circle><circle r="49" cx="1372" cy="490" fill="hsl(157, 74%, 21%)"></circle><circle r="49" cx="1372" cy="588" fill="hsl(151, 74%, 21%)"></circle><circle r="49" cx="1372" cy="686" fill="hsl(141, 74%, 21%)"></circle><circle r="49" cx="1372" cy="784" fill="hsl(136, 74%, 21%)"></circle><circle r="49" cx="1372" cy="882" fill="hsl(136, 74%, 21%)"></circle><circle r="49" cx="1470" cy="0" fill="hsl(213, 74%, 21%)"></circle><circle r="49" cx="1470" cy="98" fill="hsl(208, 74%, 21%)"></circle><circle r="49" cx="1470" cy="196" fill="hsl(195, 74%, 21%)"></circle><circle r="49" cx="1470" cy="294" fill="hsl(188, 74%, 21%)"></circle><circle r="49" cx="1470" cy="392" fill="hsl(172, 74%, 21%)"></circle><circle r="49" cx="1470" cy="490" fill="hsl(157, 74%, 21%)"></circle><circle r="49" cx="1470" cy="588" fill="hsl(151, 74%, 21%)"></circle><circle r="49" cx="1470" cy="686" fill="hsl(141, 74%, 21%)"></circle><circle r="49" cx="1470" cy="784" fill="hsl(136, 74%, 21%)"></circle><circle r="49" cx="1470" cy="882" fill="hsl(136, 74%, 21%)"></circle><circle r="49" cx="1568" cy="0" fill="hsl(213, 74%, 21%)"></circle><circle r="49" cx="1568" cy="98" fill="hsl(208, 74%, 21%)"></circle><circle r="49" cx="1568" cy="196" fill="hsl(195, 74%, 21%)"></circle><circle r="49" cx="1568" cy="294" fill="hsl(188, 74%, 21%)"></circle><circle r="49" cx="1568" cy="392" fill="hsl(172, 74%, 21%)"></circle><circle r="49" cx="1568" cy="490" fill="hsl(157, 74%, 21%)"></circle><circle r="49" cx="1568" cy="588" fill="hsl(151, 74%, 21%)"></circle><circle r="49" cx="1568" cy="686" fill="hsl(141, 74%, 21%)"></circle><circle r="49" cx="1568" cy="784" fill="hsl(136, 74%, 21%)"></circle><circle r="49" cx="1568" cy="882" fill="hsl(136, 74%, 21%)"></circle><circle r="49" cx="1666" cy="0" fill="hsl(213, 74%, 21%)"></circle><circle r="49" cx="1666" cy="98" fill="hsl(208, 74%, 21%)"></circle><circle r="49" cx="1666" cy="196" fill="hsl(195, 74%, 21%)"></circle><circle r="49" cx="1666" cy="294" fill="hsl(188, 74%, 21%)"></circle><circle r="49" cx="1666" cy="392" fill="hsl(172, 74%, 21%)"></circle><circle r="49" cx="1666" cy="490" fill="hsl(157, 74%, 21%)"></circle><circle r="49" cx="1666" cy="588" fill="hsl(151, 74%, 21%)"></circle><circle r="49" cx="1666" cy="686" fill="hsl(141, 74%, 21%)"></circle><circle r="49" cx="1666" cy="784" fill="hsl(136, 74%, 21%)"></circle><circle r="49" cx="1666" cy="882" fill="hsl(136, 74%, 21%)"></circle><circle r="49" cx="1764" cy="0" fill="hsl(213, 74%, 21%)"></circle><circle r="49" cx="1764" cy="98" fill="hsl(208, 74%, 21%)"></circle><circle r="49" cx="1764" cy="196" fill="hsl(195, 74%, 21%)"></circle><circle r="49" cx="1764" cy="294" fill="hsl(188, 74%, 21%)"></circle><circle r="49" cx="1764" cy="392" fill="hsl(172, 74%, 21%)"></circle><circle r="49" cx="1764" cy="490" fill="hsl(157, 74%, 21%)"></circle><circle r="49" cx="1764" cy="588" fill="hsl(151, 74%, 21%)"></circle><circle r="49" cx="1764" cy="686" fill="hsl(141, 74%, 21%)"></circle><circle r="49" cx="1764" cy="784" fill="hsl(136, 74%, 21%)"></circle><circle r="49" cx="1764" cy="882" fill="hsl(136, 74%, 21%)"></circle></g><g transform="matrix(1,0,0,1,-49,0)"><circle r="49" cx="0" cy="49" fill="hsl(185, 74%, 21%)"></circle><circle r="49" cx="0" cy="147" fill="hsl(185, 74%, 21%)"></circle><circle r="49" cx="0" cy="245" fill="hsl(185, 74%, 21%)"></circle><circle r="49" cx="0" cy="343" fill="hsl(185, 74%, 21%)"></circle><circle r="49" cx="0" cy="441" fill="hsl(185, 74%, 21%)"></circle><circle r="49" cx="0" cy="539" fill="hsl(185, 74%, 21%)"></circle><circle r="49" cx="0" cy="637" fill="hsl(185, 74%, 21%)"></circle><circle r="49" cx="0" cy="735" fill="hsl(187, 74%, 21%)"></circle><circle r="49" cx="0" cy="833" fill="hsl(190, 74%, 21%)"></circle><circle r="49" cx="98" cy="49" fill="hsl(176, 74%, 21%)"></circle><circle r="49" cx="98" cy="147" fill="hsl(176, 74%, 21%)"></circle><circle r="49" cx="98" cy="245" fill="hsl(176, 74%, 21%)"></circle><circle r="49" cx="98" cy="343" fill="hsl(177, 74%, 21%)"></circle><circle r="49" cx="98" cy="441" fill="hsl(178, 74%, 21%)"></circle><circle r="49" cx="98" cy="539" fill="hsl(179, 74%, 21%)"></circle><circle r="49" cx="98" cy="637" fill="hsl(180, 74%, 21%)"></circle><circle r="49" cx="98" cy="735" fill="hsl(182, 74%, 21%)"></circle><circle r="49" cx="98" cy="833" fill="hsl(186, 74%, 21%)"></circle><circle r="49" cx="196" cy="49" fill="hsl(159, 74%, 21%)"></circle><circle r="49" cx="196" cy="147" fill="hsl(160, 74%, 21%)"></circle><circle r="49" cx="196" cy="245" fill="hsl(161, 74%, 21%)"></circle><circle r="49" cx="196" cy="343" fill="hsl(162, 74%, 21%)"></circle><circle r="49" cx="196" cy="441" fill="hsl(165, 74%, 21%)"></circle><circle r="49" cx="196" cy="539" fill="hsl(167, 74%, 21%)"></circle><circle r="49" cx="196" cy="637" fill="hsl(169, 74%, 21%)"></circle><circle r="49" cx="196" cy="735" fill="hsl(171, 74%, 21%)"></circle><circle r="49" cx="196" cy="833" fill="hsl(175, 74%, 21%)"></circle><circle r="49" cx="294" cy="49" fill="hsl(152, 74%, 21%)"></circle><circle r="49" cx="294" cy="147" fill="hsl(153, 74%, 21%)"></circle><circle r="49" cx="294" cy="245" fill="hsl(155, 74%, 21%)"></circle><circle r="49" cx="294" cy="343" fill="hsl(156, 74%, 21%)"></circle><circle r="49" cx="294" cy="441" fill="hsl(159, 74%, 21%)"></circle><circle r="49" cx="294" cy="539" fill="hsl(161, 74%, 21%)"></circle><circle r="49" cx="294" cy="637" fill="hsl(163, 74%, 21%)"></circle><circle r="49" cx="294" cy="735" fill="hsl(165, 74%, 21%)"></circle><circle r="49" cx="294" cy="833" fill="hsl(168, 74%, 21%)"></circle><circle r="49" cx="392" cy="49" fill="hsl(141, 74%, 21%)"></circle><circle r="49" cx="392" cy="147" fill="hsl(142, 74%, 21%)"></circle><circle r="49" cx="392" cy="245" fill="hsl(144, 74%, 21%)"></circle><circle r="49" cx="392" cy="343" fill="hsl(145, 74%, 21%)"></circle><circle r="49" cx="392" cy="441" fill="hsl(148, 74%, 21%)"></circle><circle r="49" cx="392" cy="539" fill="hsl(150, 74%, 21%)"></circle><circle r="49" cx="392" cy="637" fill="hsl(151, 74%, 21%)"></circle><circle r="49" cx="392" cy="735" fill="hsl(153, 74%, 21%)"></circle><circle r="49" cx="392" cy="833" fill="hsl(155, 74%, 21%)"></circle><circle r="49" cx="490" cy="49" fill="hsl(135, 74%, 21%)"></circle><circle r="49" cx="490" cy="147" fill="hsl(135, 74%, 21%)"></circle><circle r="49" cx="490" cy="245" fill="hsl(137, 74%, 21%)"></circle><circle r="49" cx="490" cy="343" fill="hsl(138, 74%, 21%)"></circle><circle r="49" cx="490" cy="441" fill="hsl(140, 74%, 21%)"></circle><circle r="49" cx="490" cy="539" fill="hsl(141, 74%, 21%)"></circle><circle r="49" cx="490" cy="637" fill="hsl(141, 74%, 21%)"></circle><circle r="49" cx="490" cy="735" fill="hsl(140, 74%, 21%)"></circle><circle r="49" cx="490" cy="833" fill="hsl(140, 74%, 21%)"></circle><circle r="49" cx="588" cy="49" fill="hsl(135, 74%, 21%)"></circle><circle r="49" cx="588" cy="147" fill="hsl(135, 74%, 21%)"></circle><circle r="49" cx="588" cy="245" fill="hsl(136, 74%, 21%)"></circle><circle r="49" cx="588" cy="343" fill="hsl(136, 74%, 21%)"></circle><circle r="49" cx="588" cy="441" fill="hsl(137, 74%, 21%)"></circle><circle r="49" cx="588" cy="539" fill="hsl(136, 74%, 21%)"></circle><circle r="49" cx="588" cy="637" fill="hsl(136, 74%, 21%)"></circle><circle r="49" cx="588" cy="735" fill="hsl(135, 74%, 21%)"></circle><circle r="49" cx="588" cy="833" fill="hsl(134, 74%, 21%)"></circle><circle r="49" cx="686" cy="49" fill="hsl(139, 74%, 21%)"></circle><circle r="49" cx="686" cy="147" fill="hsl(138, 74%, 21%)"></circle><circle r="49" cx="686" cy="245" fill="hsl(136, 74%, 21%)"></circle><circle r="49" cx="686" cy="343" fill="hsl(135, 74%, 21%)"></circle><circle r="49" cx="686" cy="441" fill="hsl(133, 74%, 21%)"></circle><circle r="49" cx="686" cy="539" fill="hsl(130, 74%, 21%)"></circle><circle r="49" cx="686" cy="637" fill="hsl(128, 74%, 21%)"></circle><circle r="49" cx="686" cy="735" fill="hsl(125, 74%, 21%)"></circle><circle r="49" cx="686" cy="833" fill="hsl(123, 74%, 21%)"></circle><circle r="49" cx="784" cy="49" fill="hsl(151, 74%, 21%)"></circle><circle r="49" cx="784" cy="147" fill="hsl(146, 74%, 21%)"></circle><circle r="49" cx="784" cy="245" fill="hsl(141, 74%, 21%)"></circle><circle r="49" cx="784" cy="343" fill="hsl(139, 74%, 21%)"></circle><circle r="49" cx="784" cy="441" fill="hsl(133, 74%, 21%)"></circle><circle r="49" cx="784" cy="539" fill="hsl(127, 74%, 21%)"></circle><circle r="49" cx="784" cy="637" fill="hsl(124, 74%, 21%)"></circle><circle r="49" cx="784" cy="735" fill="hsl(119, 74%, 21%)"></circle><circle r="49" cx="784" cy="833" fill="hsl(115, 74%, 21%)"></circle><circle r="49" cx="882" cy="49" fill="hsl(158, 74%, 21%)"></circle><circle r="49" cx="882" cy="147" fill="hsl(152, 74%, 21%)"></circle><circle r="49" cx="882" cy="245" fill="hsl(145, 74%, 21%)"></circle><circle r="49" cx="882" cy="343" fill="hsl(142, 74%, 21%)"></circle><circle r="49" cx="882" cy="441" fill="hsl(134, 74%, 21%)"></circle><circle r="49" cx="882" cy="539" fill="hsl(126, 74%, 21%)"></circle><circle r="49" cx="882" cy="637" fill="hsl(123, 74%, 21%)"></circle><circle r="49" cx="882" cy="735" fill="hsl(117, 74%, 21%)"></circle><circle r="49" cx="882" cy="833" fill="hsl(113, 74%, 21%)"></circle><circle r="49" cx="980" cy="49" fill="hsl(175, 74%, 21%)"></circle><circle r="49" cx="980" cy="147" fill="hsl(166, 74%, 21%)"></circle><circle r="49" cx="980" cy="245" fill="hsl(156, 74%, 21%)"></circle><circle r="49" cx="980" cy="343" fill="hsl(151, 74%, 21%)"></circle><circle r="49" cx="980" cy="441" fill="hsl(139, 74%, 21%)"></circle><circle r="49" cx="980" cy="539" fill="hsl(128, 74%, 21%)"></circle><circle r="49" cx="980" cy="637" fill="hsl(124, 74%, 21%)"></circle><circle r="49" cx="980" cy="735" fill="hsl(116, 74%, 21%)"></circle><circle r="49" cx="980" cy="833" fill="hsl(111, 74%, 21%)"></circle><circle r="49" cx="1078" cy="49" fill="hsl(191, 74%, 21%)"></circle><circle r="49" cx="1078" cy="147" fill="hsl(180, 74%, 21%)"></circle><circle r="49" cx="1078" cy="245" fill="hsl(167, 74%, 21%)"></circle><circle r="49" cx="1078" cy="343" fill="hsl(161, 74%, 21%)"></circle><circle r="49" cx="1078" cy="441" fill="hsl(146, 74%, 21%)"></circle><circle r="49" cx="1078" cy="539" fill="hsl(133, 74%, 21%)"></circle><circle r="49" cx="1078" cy="637" fill="hsl(127, 74%, 21%)"></circle><circle r="49" cx="1078" cy="735" fill="hsl(118, 74%, 21%)"></circle><circle r="49" cx="1078" cy="833" fill="hsl(114, 74%, 21%)"></circle><circle r="49" cx="1176" cy="49" fill="hsl(198, 74%, 21%)"></circle><circle r="49" cx="1176" cy="147" fill="hsl(187, 74%, 21%)"></circle><circle r="49" cx="1176" cy="245" fill="hsl(173, 74%, 21%)"></circle><circle r="49" cx="1176" cy="343" fill="hsl(165, 74%, 21%)"></circle><circle r="49" cx="1176" cy="441" fill="hsl(150, 74%, 21%)"></circle><circle r="49" cx="1176" cy="539" fill="hsl(136, 74%, 21%)"></circle><circle r="49" cx="1176" cy="637" fill="hsl(130, 74%, 21%)"></circle><circle r="49" cx="1176" cy="735" fill="hsl(121, 74%, 21%)"></circle><circle r="49" cx="1176" cy="833" fill="hsl(117, 74%, 21%)"></circle><circle r="49" cx="1274" cy="49" fill="hsl(209, 74%, 21%)"></circle><circle r="49" cx="1274" cy="147" fill="hsl(197, 74%, 21%)"></circle><circle r="49" cx="1274" cy="245" fill="hsl(182, 74%, 21%)"></circle><circle r="49" cx="1274" cy="343" fill="hsl(174, 74%, 21%)"></circle><circle r="49" cx="1274" cy="441" fill="hsl(158, 74%, 21%)"></circle><circle r="49" cx="1274" cy="539" fill="hsl(143, 74%, 21%)"></circle><circle r="49" cx="1274" cy="637" fill="hsl(137, 74%, 21%)"></circle><circle r="49" cx="1274" cy="735" fill="hsl(128, 74%, 21%)"></circle><circle r="49" cx="1274" cy="833" fill="hsl(125, 74%, 21%)"></circle><circle r="49" cx="1372" cy="49" fill="hsl(213, 74%, 21%)"></circle><circle r="49" cx="1372" cy="147" fill="hsl(202, 74%, 21%)"></circle><circle r="49" cx="1372" cy="245" fill="hsl(188, 74%, 21%)"></circle><circle r="49" cx="1372" cy="343" fill="hsl(180, 74%, 21%)"></circle><circle r="49" cx="1372" cy="441" fill="hsl(164, 74%, 21%)"></circle><circle r="49" cx="1372" cy="539" fill="hsl(151, 74%, 21%)"></circle><circle r="49" cx="1372" cy="637" fill="hsl(145, 74%, 21%)"></circle><circle r="49" cx="1372" cy="735" fill="hsl(138, 74%, 21%)"></circle><circle r="49" cx="1372" cy="833" fill="hsl(136, 74%, 21%)"></circle><circle r="49" cx="1470" cy="49" fill="hsl(213, 74%, 21%)"></circle><circle r="49" cx="1470" cy="147" fill="hsl(202, 74%, 21%)"></circle><circle r="49" cx="1470" cy="245" fill="hsl(188, 74%, 21%)"></circle><circle r="49" cx="1470" cy="343" fill="hsl(180, 74%, 21%)"></circle><circle r="49" cx="1470" cy="441" fill="hsl(164, 74%, 21%)"></circle><circle r="49" cx="1470" cy="539" fill="hsl(151, 74%, 21%)"></circle><circle r="49" cx="1470" cy="637" fill="hsl(145, 74%, 21%)"></circle><circle r="49" cx="1470" cy="735" fill="hsl(138, 74%, 21%)"></circle><circle r="49" cx="1470" cy="833" fill="hsl(136, 74%, 21%)"></circle><circle r="49" cx="1568" cy="49" fill="hsl(213, 74%, 21%)"></circle><circle r="49" cx="1568" cy="147" fill="hsl(202, 74%, 21%)"></circle><circle r="49" cx="1568" cy="245" fill="hsl(188, 74%, 21%)"></circle><circle r="49" cx="1568" cy="343" fill="hsl(180, 74%, 21%)"></circle><circle r="49" cx="1568" cy="441" fill="hsl(164, 74%, 21%)"></circle><circle r="49" cx="1568" cy="539" fill="hsl(151, 74%, 21%)"></circle><circle r="49" cx="1568" cy="637" fill="hsl(145, 74%, 21%)"></circle><circle r="49" cx="1568" cy="735" fill="hsl(138, 74%, 21%)"></circle><circle r="49" cx="1568" cy="833" fill="hsl(136, 74%, 21%)"></circle><circle r="49" cx="1666" cy="49" fill="hsl(213, 74%, 21%)"></circle><circle r="49" cx="1666" cy="147" fill="hsl(202, 74%, 21%)"></circle><circle r="49" cx="1666" cy="245" fill="hsl(188, 74%, 21%)"></circle><circle r="49" cx="1666" cy="343" fill="hsl(180, 74%, 21%)"></circle><circle r="49" cx="1666" cy="441" fill="hsl(164, 74%, 21%)"></circle><circle r="49" cx="1666" cy="539" fill="hsl(151, 74%, 21%)"></circle><circle r="49" cx="1666" cy="637" fill="hsl(145, 74%, 21%)"></circle><circle r="49" cx="1666" cy="735" fill="hsl(138, 74%, 21%)"></circle><circle r="49" cx="1666" cy="833" fill="hsl(136, 74%, 21%)"></circle><circle r="49" cx="1764" cy="49" fill="hsl(213, 74%, 21%)"></circle><circle r="49" cx="1764" cy="147" fill="hsl(202, 74%, 21%)"></circle><circle r="49" cx="1764" cy="245" fill="hsl(188, 74%, 21%)"></circle><circle r="49" cx="1764" cy="343" fill="hsl(180, 74%, 21%)"></circle><circle r="49" cx="1764" cy="441" fill="hsl(164, 74%, 21%)"></circle><circle r="49" cx="1764" cy="539" fill="hsl(151, 74%, 21%)"></circle><circle r="49" cx="1764" cy="637" fill="hsl(145, 74%, 21%)"></circle><circle r="49" cx="1764" cy="735" fill="hsl(138, 74%, 21%)"></circle><circle r="49" cx="1764" cy="833" fill="hsl(136, 74%, 21%)"></circle></g></svg>